<?xml version="1.0" encoding="UTF-8"?>
<svg xmlns="http://www.w3.org/2000/svg" xmlns:xlink="http://www.w3.org/1999/xlink" width="100px" height="100px" viewBox="0 0 100 100" version="1.1">
<g id="surface1">
<path style=" stroke:none;fill-rule:nonzero;fill:rgb(0%,0%,0%);fill-opacity:1;" d="M 60.539062 50.851562 C 60.476562 50.953125 60.320312 50.976562 60.078125 50.921875 C 59.835938 50.863281 59.550781 50.832031 59.226562 50.832031 C 58.902344 50.832031 58.441406 50.898438 57.847656 51.03125 C 57.253906 51.164062 56.320312 51.367188 55.042969 51.648438 C 53.769531 51.933594 52.605469 52.074219 51.554688 52.074219 C 49.179688 52.074219 46.878906 51.515625 44.648438 50.394531 C 42.417969 49.277344 40.632812 47.6875 39.292969 45.632812 C 37.957031 43.574219 37.289062 41.191406 37.289062 38.476562 C 37.289062 35.765625 37.957031 33.308594 39.292969 31.109375 C 41.242188 27.882812 44.179688 25.78125 48.105469 24.808594 C 49.355469 24.496094 50.605469 24.339844 51.855469 24.339844 C 53.570312 24.339844 55.601562 24.628906 57.953125 25.203125 C 58.664062 25.378906 59.265625 25.5625 59.761719 25.75 C 60.253906 25.9375 60.558594 26.027344 60.667969 26.027344 L 61.230469 25.878906 L 61.816406 25.878906 C 61.964844 25.878906 62.039062 25.984375 62.039062 26.195312 L 62.039062 32.027344 C 62.039062 32.152344 61.925781 32.214844 61.703125 32.214844 C 61.476562 32.214844 61.34375 32.1875 61.304688 32.132812 C 61.269531 32.074219 61.230469 32.003906 61.195312 31.925781 C 61.15625 31.84375 61.117188 31.761719 61.074219 31.675781 C 61.027344 31.585938 60.984375 31.503906 60.941406 31.429688 C 60.898438 31.351562 60.871094 31.296875 60.855469 31.257812 C 58.980469 27.496094 56.136719 25.617188 52.328125 25.617188 C 48.886719 25.617188 46.199219 26.710938 44.261719 28.898438 C 42.324219 31.085938 41.355469 33.980469 41.355469 37.585938 C 41.355469 41.191406 42.421875 44.289062 44.550781 46.878906 C 46.683594 49.464844 49.582031 50.757812 53.242188 50.757812 C 55.242188 50.757812 57.066406 50.164062 58.710938 48.976562 C 60.355469 47.789062 61.644531 46.332031 62.582031 44.609375 C 62.605469 44.53125 62.679688 44.496094 62.804688 44.496094 L 63.050781 44.496094 C 63.175781 44.496094 63.238281 44.570312 63.238281 44.71875 C 63.238281 44.871094 63.203125 45.015625 63.128906 45.152344 Z M 60.539062 50.851562 "/>
<path style=" stroke:none;fill-rule:nonzero;fill:rgb(0%,0%,0%);fill-opacity:1;" d="M 4.539062 75.925781 L 3.722656 79.882812 L 3.078125 79.882812 L 5.015625 70.746094 L 6.910156 70.746094 C 8.703125 70.746094 9.597656 71.496094 9.597656 72.996094 C 9.597656 73.753906 9.382812 74.386719 8.949219 74.894531 C 8.515625 75.394531 7.933594 75.710938 7.191406 75.839844 C 8.027344 78.304688 8.488281 79.652344 8.574219 79.882812 L 7.878906 79.882812 L 6.5625 75.925781 Z M 4.675781 75.351562 L 6.253906 75.351562 C 7.121094 75.351562 7.777344 75.152344 8.230469 74.753906 C 8.6875 74.359375 8.914062 73.773438 8.914062 72.996094 C 8.914062 71.878906 8.230469 71.320312 6.859375 71.320312 L 5.539062 71.320312 Z M 4.675781 75.351562 "/>
<path style=" stroke:none;fill-rule:nonzero;fill:rgb(0%,0%,0%);fill-opacity:1;" d="M 14.371094 79.882812 L 15.304688 75.558594 C 15.390625 75.175781 15.433594 74.851562 15.433594 74.585938 C 15.433594 74.25 15.34375 73.992188 15.164062 73.804688 C 14.980469 73.617188 14.703125 73.523438 14.320312 73.523438 C 13.855469 73.523438 13.414062 73.664062 13.003906 73.941406 C 12.597656 74.222656 12.25 74.613281 11.96875 75.113281 C 11.6875 75.613281 11.472656 76.210938 11.320312 76.902344 L 10.683594 79.882812 L 10.070312 79.882812 L 11.515625 73.089844 L 12.03125 73.089844 L 11.796875 74.472656 L 11.832031 74.472656 C 12.515625 73.480469 13.382812 72.984375 14.433594 72.984375 C 14.976562 72.984375 15.378906 73.117188 15.652344 73.382812 C 15.921875 73.652344 16.058594 74.035156 16.058594 74.535156 C 16.058594 74.824219 16.007812 75.207031 15.910156 75.671875 L 14.984375 79.882812 Z M 14.371094 79.882812 "/>
<path style=" stroke:none;fill-rule:nonzero;fill:rgb(0%,0%,0%);fill-opacity:1;" d="M 20.835938 72.984375 C 21.792969 72.984375 22.375 73.441406 22.578125 74.351562 L 22.601562 74.351562 C 22.652344 74.074219 22.949219 72.679688 23.5 70.160156 L 24.113281 70.160156 L 22.050781 79.882812 L 21.539062 79.882812 L 21.824219 78.171875 L 21.785156 78.171875 C 21.0625 79.398438 20.179688 80.007812 19.136719 80.007812 C 17.964844 80.007812 17.378906 79.230469 17.378906 77.671875 C 17.378906 76.867188 17.527344 76.097656 17.824219 75.359375 C 18.125 74.621094 18.535156 74.039062 19.0625 73.617188 C 19.585938 73.195312 20.175781 72.984375 20.835938 72.984375 Z M 19.277344 79.445312 C 19.648438 79.445312 20.019531 79.316406 20.394531 79.054688 C 20.765625 78.792969 21.097656 78.445312 21.394531 78.003906 C 21.6875 77.566406 21.910156 77.085938 22.0625 76.5625 C 22.210938 76.039062 22.285156 75.601562 22.285156 75.25 C 22.285156 74.726562 22.15625 74.308594 21.898438 73.992188 C 21.640625 73.679688 21.292969 73.523438 20.847656 73.523438 C 20.332031 73.523438 19.863281 73.695312 19.449219 74.042969 C 19.03125 74.386719 18.691406 74.890625 18.421875 75.554688 C 18.15625 76.21875 18.023438 76.902344 18.023438 77.601562 C 18.023438 78.832031 18.441406 79.445312 19.277344 79.445312 Z M 19.277344 79.445312 "/>
<path style=" stroke:none;fill-rule:nonzero;fill:rgb(0%,0%,0%);fill-opacity:1;" d="M 28.265625 79.882812 L 29.183594 75.671875 C 29.289062 75.148438 29.34375 74.8125 29.34375 74.660156 C 29.34375 73.902344 29.019531 73.523438 28.378906 73.523438 C 27.9375 73.523438 27.519531 73.664062 27.128906 73.941406 C 26.738281 74.222656 26.40625 74.617188 26.132812 75.121094 C 25.863281 75.625 25.65625 76.222656 25.507812 76.914062 L 24.882812 79.882812 L 24.269531 79.882812 L 25.71875 73.089844 L 26.21875 73.089844 L 26.007812 74.402344 L 26.046875 74.402344 C 26.378906 73.933594 26.757812 73.578125 27.179688 73.34375 C 27.605469 73.105469 28.046875 72.984375 28.507812 72.984375 C 28.949219 72.984375 29.289062 73.125 29.527344 73.40625 C 29.765625 73.683594 29.890625 74.089844 29.90625 74.621094 L 29.941406 74.621094 C 30.261719 74.082031 30.636719 73.675781 31.070312 73.402344 C 31.503906 73.125 31.96875 72.984375 32.457031 72.984375 C 32.949219 72.984375 33.328125 73.113281 33.601562 73.367188 C 33.871094 73.625 34.007812 73.992188 34.007812 74.472656 C 34.007812 74.589844 34.003906 74.710938 33.992188 74.824219 C 33.984375 74.941406 33.941406 75.1875 33.871094 75.570312 L 32.921875 79.882812 L 32.296875 79.882812 L 33.230469 75.632812 C 33.332031 75.132812 33.382812 74.769531 33.382812 74.535156 C 33.382812 74.210938 33.292969 73.964844 33.113281 73.789062 C 32.933594 73.613281 32.6875 73.523438 32.371094 73.523438 C 31.71875 73.523438 31.140625 73.808594 30.636719 74.378906 C 30.136719 74.953125 29.785156 75.707031 29.582031 76.648438 L 28.90625 79.882812 Z M 28.265625 79.882812 "/>
<path style=" stroke:none;fill-rule:nonzero;fill:rgb(0%,0%,0%);fill-opacity:1;" d="M 40.773438 71.199219 C 39.949219 71.199219 39.21875 71.417969 38.574219 71.855469 C 37.933594 72.292969 37.421875 72.925781 37.042969 73.757812 C 36.667969 74.59375 36.476562 75.511719 36.476562 76.511719 C 36.476562 77.453125 36.707031 78.175781 37.167969 78.679688 C 37.628906 79.183594 38.292969 79.433594 39.152344 79.433594 C 39.734375 79.433594 40.371094 79.328125 41.050781 79.113281 L 41.050781 79.699219 C 40.402344 79.90625 39.746094 80.007812 39.078125 80.007812 C 38.027344 80.007812 37.222656 79.707031 36.664062 79.105469 C 36.105469 78.5 35.828125 77.644531 35.828125 76.539062 C 35.828125 75.429688 36.046875 74.414062 36.480469 73.488281 C 36.917969 72.5625 37.511719 71.855469 38.261719 71.359375 C 39.011719 70.863281 39.847656 70.613281 40.773438 70.613281 C 41.507812 70.613281 42.148438 70.753906 42.691406 71.039062 L 42.410156 71.601562 C 42.179688 71.476562 41.921875 71.378906 41.632812 71.308594 C 41.34375 71.238281 41.058594 71.199219 40.773438 71.199219 Z M 40.773438 71.199219 "/>
<path style=" stroke:none;fill-rule:nonzero;fill:rgb(0%,0%,0%);fill-opacity:1;" d="M 46.128906 72.960938 C 46.878906 72.960938 47.457031 73.1875 47.867188 73.636719 C 48.277344 74.089844 48.484375 74.710938 48.484375 75.507812 C 48.484375 76.328125 48.335938 77.097656 48.039062 77.8125 C 47.738281 78.527344 47.332031 79.070312 46.816406 79.445312 C 46.300781 79.820312 45.703125 80.007812 45.03125 80.007812 C 44.261719 80.007812 43.679688 79.78125 43.28125 79.324219 C 42.882812 78.867188 42.683594 78.214844 42.683594 77.363281 C 42.683594 76.570312 42.835938 75.824219 43.136719 75.128906 C 43.441406 74.433594 43.855469 73.898438 44.371094 73.523438 C 44.886719 73.148438 45.472656 72.960938 46.128906 72.960938 Z M 46.078125 73.496094 C 45.5625 73.496094 45.097656 73.660156 44.683594 73.988281 C 44.273438 74.3125 43.941406 74.78125 43.695312 75.394531 C 43.453125 76.003906 43.328125 76.652344 43.328125 77.335938 C 43.328125 78.757812 43.917969 79.472656 45.09375 79.472656 C 45.621094 79.472656 46.089844 79.3125 46.5 78.988281 C 46.910156 78.664062 47.238281 78.1875 47.480469 77.5625 C 47.722656 76.9375 47.847656 76.246094 47.847656 75.496094 C 47.847656 74.855469 47.691406 74.363281 47.386719 74.019531 C 47.085938 73.671875 46.648438 73.496094 46.078125 73.496094 Z M 46.078125 73.496094 "/>
<path style=" stroke:none;fill-rule:nonzero;fill:rgb(0%,0%,0%);fill-opacity:1;" d="M 53.191406 72.984375 C 54.152344 72.984375 54.730469 73.441406 54.933594 74.351562 L 54.957031 74.351562 C 55.007812 74.074219 55.308594 72.679688 55.855469 70.160156 L 56.472656 70.160156 L 54.410156 79.882812 L 53.894531 79.882812 L 54.179688 78.171875 L 54.140625 78.171875 C 53.417969 79.398438 52.535156 80.007812 51.492188 80.007812 C 50.320312 80.007812 49.734375 79.230469 49.734375 77.671875 C 49.734375 76.867188 49.882812 76.097656 50.179688 75.359375 C 50.480469 74.621094 50.890625 74.039062 51.417969 73.617188 C 51.941406 73.195312 52.535156 72.984375 53.191406 72.984375 Z M 51.632812 79.445312 C 52.003906 79.445312 52.378906 79.316406 52.75 79.054688 C 53.121094 78.792969 53.457031 78.445312 53.75 78.003906 C 54.042969 77.566406 54.265625 77.085938 54.417969 76.5625 C 54.566406 76.039062 54.640625 75.601562 54.640625 75.25 C 54.640625 74.726562 54.511719 74.308594 54.253906 73.992188 C 54 73.679688 53.648438 73.523438 53.203125 73.523438 C 52.6875 73.523438 52.222656 73.695312 51.804688 74.042969 C 51.386719 74.386719 51.046875 74.890625 50.78125 75.554688 C 50.511719 76.21875 50.378906 76.902344 50.378906 77.601562 C 50.378906 78.832031 50.796875 79.445312 51.632812 79.445312 Z M 51.632812 79.445312 "/>
<path style=" stroke:none;fill-rule:nonzero;fill:rgb(0%,0%,0%);fill-opacity:1;" d="M 59.109375 80.007812 C 58.386719 80.007812 57.824219 79.78125 57.417969 79.324219 C 57.015625 78.867188 56.816406 78.230469 56.816406 77.414062 C 56.816406 76.660156 56.960938 75.9375 57.257812 75.246094 C 57.554688 74.554688 57.960938 74.003906 58.480469 73.597656 C 59 73.1875 59.574219 72.984375 60.199219 72.984375 C 60.671875 72.984375 61.050781 73.113281 61.335938 73.367188 C 61.621094 73.621094 61.761719 73.964844 61.761719 74.402344 C 61.761719 75.15625 61.417969 75.734375 60.734375 76.128906 C 60.054688 76.523438 59.042969 76.722656 57.703125 76.722656 L 57.5 76.722656 C 57.472656 76.90625 57.460938 77.109375 57.460938 77.335938 C 57.460938 78.019531 57.613281 78.542969 57.921875 78.90625 C 58.230469 79.265625 58.675781 79.445312 59.253906 79.445312 C 59.800781 79.445312 60.378906 79.292969 60.976562 78.988281 L 60.976562 79.574219 C 60.394531 79.867188 59.769531 80.007812 59.109375 80.007812 Z M 60.125 73.523438 C 59.574219 73.523438 59.066406 73.761719 58.597656 74.242188 C 58.132812 74.722656 57.792969 75.367188 57.585938 76.171875 L 57.890625 76.171875 C 60.046875 76.171875 61.125 75.609375 61.125 74.484375 C 61.125 74.203125 61.03125 73.972656 60.847656 73.792969 C 60.667969 73.613281 60.425781 73.523438 60.125 73.523438 Z M 60.125 73.523438 "/>
<path style=" stroke:none;fill-rule:nonzero;fill:rgb(0%,0%,0%);fill-opacity:1;" d="M 67.328125 75.289062 L 69.863281 75.289062 L 68.925781 79.550781 C 68.050781 79.855469 67.207031 80.007812 66.398438 80.007812 C 65.324219 80.007812 64.5 79.707031 63.914062 79.097656 C 63.332031 78.488281 63.039062 77.613281 63.039062 76.464844 C 63.039062 75.363281 63.257812 74.355469 63.695312 73.441406 C 64.132812 72.53125 64.722656 71.832031 65.46875 71.347656 C 66.214844 70.859375 67.035156 70.613281 67.941406 70.613281 C 68.410156 70.613281 68.835938 70.652344 69.210938 70.734375 C 69.585938 70.8125 69.96875 70.933594 70.359375 71.101562 L 70.125 71.6875 C 69.664062 71.496094 69.269531 71.367188 68.9375 71.300781 C 68.605469 71.234375 68.257812 71.199219 67.890625 71.199219 C 67.125 71.199219 66.417969 71.425781 65.769531 71.875 C 65.125 72.324219 64.617188 72.949219 64.246094 73.757812 C 63.875 74.566406 63.691406 75.46875 63.691406 76.464844 C 63.691406 77.417969 63.929688 78.152344 64.40625 78.667969 C 64.882812 79.179688 65.566406 79.433594 66.449219 79.433594 C 67.09375 79.433594 67.734375 79.335938 68.378906 79.136719 L 69.109375 75.851562 L 67.214844 75.851562 Z M 67.328125 75.289062 "/>
<path style=" stroke:none;fill-rule:nonzero;fill:rgb(0%,0%,0%);fill-opacity:1;" d="M 72.949219 73.089844 L 72 77.449219 C 71.90625 77.894531 71.859375 78.222656 71.859375 78.4375 C 71.859375 78.746094 71.957031 78.992188 72.15625 79.175781 C 72.355469 79.355469 72.640625 79.445312 73.023438 79.445312 C 73.480469 79.445312 73.914062 79.3125 74.320312 79.039062 C 74.722656 78.761719 75.066406 78.375 75.34375 77.867188 C 75.621094 77.363281 75.828125 76.78125 75.964844 76.121094 L 76.625 73.089844 L 77.234375 73.089844 L 75.789062 79.882812 L 75.289062 79.882812 L 75.464844 78.601562 L 75.425781 78.601562 C 74.734375 79.523438 73.894531 79.984375 72.910156 79.984375 C 72.363281 79.984375 71.949219 79.855469 71.667969 79.597656 C 71.386719 79.339844 71.25 78.960938 71.25 78.464844 C 71.25 78.214844 71.292969 77.859375 71.386719 77.402344 L 72.324219 73.089844 Z M 72.949219 73.089844 "/>
<path style=" stroke:none;fill-rule:nonzero;fill:rgb(0%,0%,0%);fill-opacity:1;" d="M 78.480469 73.089844 L 79.105469 73.089844 L 79.617188 76.511719 C 79.828125 77.976562 79.941406 78.914062 79.957031 79.320312 L 80.03125 79.320312 C 80.207031 78.882812 80.59375 78.117188 81.191406 77.027344 L 83.367188 73.089844 L 84.007812 73.089844 L 79.554688 81.15625 C 79.253906 81.683594 79 82.050781 78.789062 82.261719 C 78.578125 82.476562 78.339844 82.648438 78.070312 82.773438 C 77.808594 82.898438 77.503906 82.960938 77.160156 82.960938 C 76.875 82.960938 76.605469 82.914062 76.351562 82.832031 L 76.351562 82.253906 C 76.648438 82.367188 76.933594 82.421875 77.207031 82.421875 C 77.542969 82.421875 77.847656 82.320312 78.125 82.113281 C 78.40625 81.90625 78.675781 81.566406 78.9375 81.085938 C 79.203125 80.605469 79.410156 80.222656 79.566406 79.933594 Z M 78.480469 73.089844 "/>
<path style=" stroke:none;fill-rule:nonzero;fill:rgb(0%,0%,0%);fill-opacity:1;" d="M 89.140625 79.882812 L 83.703125 79.882812 L 83.84375 79.234375 L 86.644531 76.722656 C 87.472656 75.984375 88.0625 75.40625 88.421875 74.992188 C 88.78125 74.578125 89.042969 74.191406 89.214844 73.832031 C 89.382812 73.464844 89.46875 73.089844 89.46875 72.699219 C 89.46875 72.234375 89.328125 71.863281 89.054688 71.589844 C 88.78125 71.3125 88.367188 71.175781 87.820312 71.175781 C 87.089844 71.175781 86.394531 71.445312 85.742188 71.984375 L 85.40625 71.527344 C 86.15625 70.917969 86.976562 70.613281 87.867188 70.613281 C 88.585938 70.613281 89.144531 70.792969 89.542969 71.148438 C 89.941406 71.5 90.140625 71.992188 90.140625 72.625 C 90.140625 73.085938 90.050781 73.519531 89.867188 73.929688 C 89.6875 74.339844 89.390625 74.785156 88.984375 75.253906 C 88.574219 75.726562 87.925781 76.355469 87.042969 77.148438 L 84.644531 79.257812 L 84.644531 79.285156 L 89.246094 79.285156 Z M 89.140625 79.882812 "/>
<path style=" stroke:none;fill-rule:nonzero;fill:rgb(0%,0%,0%);fill-opacity:1;" d="M 97.230469 73.535156 C 97.230469 74.371094 97.144531 75.214844 96.972656 76.0625 C 96.800781 76.914062 96.558594 77.632812 96.242188 78.226562 C 95.925781 78.816406 95.546875 79.261719 95.097656 79.5625 C 94.644531 79.863281 94.140625 80.007812 93.582031 80.007812 C 92.851562 80.007812 92.296875 79.746094 91.929688 79.21875 C 91.5625 78.691406 91.378906 77.882812 91.378906 76.796875 C 91.378906 76.023438 91.472656 75.226562 91.65625 74.414062 C 91.839844 73.597656 92.097656 72.902344 92.429688 72.324219 C 92.761719 71.75 93.152344 71.316406 93.601562 71.03125 C 94.046875 70.746094 94.546875 70.601562 95.105469 70.601562 C 96.519531 70.601562 97.230469 71.578125 97.230469 73.535156 Z M 95.03125 71.152344 C 94.472656 71.152344 93.96875 71.386719 93.515625 71.859375 C 93.070312 72.328125 92.707031 73.011719 92.433594 73.914062 C 92.160156 74.8125 92.019531 75.753906 92.019531 76.734375 C 92.019531 77.660156 92.152344 78.347656 92.414062 78.792969 C 92.671875 79.238281 93.085938 79.460938 93.644531 79.460938 C 94.226562 79.460938 94.734375 79.226562 95.171875 78.757812 C 95.609375 78.292969 95.957031 77.589844 96.207031 76.65625 C 96.464844 75.714844 96.59375 74.695312 96.59375 73.597656 C 96.59375 72.765625 96.46875 72.152344 96.21875 71.75 C 95.96875 71.351562 95.574219 71.152344 95.03125 71.152344 Z M 95.03125 71.152344 "/>
</g>
</svg>
