<?xml version="1.0" encoding="UTF-8"?>
<svg xmlns="http://www.w3.org/2000/svg" xmlns:xlink="http://www.w3.org/1999/xlink" width="100px" height="100px" viewBox="0 0 100 100" version="1.1">
<g id="surface1">
<path style=" stroke:none;fill-rule:nonzero;fill:rgb(0%,0%,0%);fill-opacity:1;" d="M 35.269531 43.921875 C 35.21875 44 35.097656 44.015625 34.90625 43.972656 C 34.714844 43.929688 34.492188 43.90625 34.238281 43.90625 C 33.984375 43.90625 33.625 43.957031 33.15625 44.058594 C 32.691406 44.164062 31.957031 44.324219 30.957031 44.542969 C 29.957031 44.765625 29.042969 44.875 28.21875 44.875 C 26.355469 44.875 24.546875 44.4375 22.792969 43.558594 C 21.042969 42.683594 19.644531 41.4375 18.59375 39.820312 C 17.546875 38.207031 17.023438 36.335938 17.023438 34.210938 C 17.023438 32.082031 17.550781 30.152344 18.597656 28.425781 C 20.128906 25.894531 22.433594 24.25 25.511719 23.484375 C 26.492188 23.242188 27.472656 23.117188 28.457031 23.117188 C 29.800781 23.117188 31.390625 23.34375 33.238281 23.792969 C 33.796875 23.929688 34.269531 24.070312 34.65625 24.21875 C 35.042969 24.367188 35.28125 24.4375 35.371094 24.4375 L 35.8125 24.320312 L 36.269531 24.320312 C 36.386719 24.320312 36.445312 24.40625 36.445312 24.570312 L 36.445312 29.148438 C 36.445312 29.246094 36.355469 29.296875 36.179688 29.296875 C 36.003906 29.296875 35.898438 29.273438 35.871094 29.230469 C 35.839844 29.1875 35.8125 29.132812 35.78125 29.066406 C 35.753906 29.003906 35.722656 28.9375 35.6875 28.871094 C 35.652344 28.804688 35.617188 28.738281 35.582031 28.679688 C 35.550781 28.621094 35.527344 28.574219 35.519531 28.546875 C 34.046875 25.59375 31.816406 24.117188 28.824219 24.117188 C 26.125 24.117188 24.015625 24.976562 22.496094 26.691406 C 20.976562 28.410156 20.214844 30.683594 20.214844 33.511719 C 20.214844 36.339844 21.050781 38.769531 22.722656 40.800781 C 24.394531 42.832031 26.667969 43.847656 29.542969 43.847656 C 31.113281 43.847656 32.542969 43.382812 33.832031 42.449219 C 35.125 41.515625 36.136719 40.375 36.871094 39.023438 C 36.890625 38.964844 36.949219 38.933594 37.050781 38.933594 L 37.242188 38.933594 C 37.335938 38.933594 37.386719 38.992188 37.386719 39.109375 C 37.386719 39.226562 37.355469 39.339844 37.300781 39.445312 Z M 35.269531 43.921875 "/>
<path style=" stroke:none;fill-rule:nonzero;fill:rgb(0%,0%,0%);fill-opacity:1;" d="M 39.621094 37.867188 C 39.621094 35.941406 40.304688 34.28125 41.671875 32.890625 C 43.039062 31.503906 44.679688 30.808594 46.59375 30.808594 C 48.507812 30.808594 50.167969 31.484375 51.582031 32.835938 C 52.992188 34.183594 53.703125 35.851562 53.703125 37.828125 C 53.703125 39.8125 53.03125 41.480469 51.691406 42.839844 C 50.351562 44.195312 48.671875 44.875 46.652344 44.875 C 44.632812 44.875 42.957031 44.191406 41.621094 42.816406 C 40.289062 41.445312 39.621094 39.796875 39.621094 37.867188 Z M 43.285156 41.65625 C 44.246094 43.273438 45.554688 44.085938 47.214844 44.085938 C 48.5 44.085938 49.484375 43.570312 50.164062 42.539062 C 50.84375 41.507812 51.183594 40.242188 51.183594 38.742188 C 51.183594 37.242188 50.707031 35.703125 49.75 34.121094 C 48.796875 32.542969 47.507812 31.75 45.890625 31.75 C 44.703125 31.75 43.769531 32.261719 43.085938 33.289062 C 42.402344 34.3125 42.0625 35.613281 42.0625 37.1875 C 42.0625 38.761719 42.46875 40.253906 43.285156 41.65625 Z M 43.285156 41.65625 "/>
<path style=" stroke:none;fill-rule:nonzero;fill:rgb(0%,0%,0%);fill-opacity:1;" d="M 64.914062 31.449219 C 65.34375 31.605469 65.605469 31.679688 65.703125 31.679688 C 65.804688 31.679688 65.867188 31.679688 65.890625 31.671875 C 65.917969 31.667969 65.949219 31.605469 65.988281 31.488281 L 65.988281 23.898438 C 65.988281 23.484375 65.761719 23.199219 65.308594 23.042969 C 65.113281 22.972656 64.902344 22.917969 64.675781 22.871094 C 64.449219 22.828125 64.269531 22.785156 64.136719 22.746094 C 64.007812 22.707031 63.921875 22.671875 63.886719 22.636719 C 63.855469 22.601562 63.839844 22.527344 63.839844 22.417969 C 63.839844 22.304688 63.910156 22.207031 64.058594 22.128906 L 67.8125 20.363281 C 67.929688 20.304688 68.003906 20.277344 68.035156 20.277344 C 68.199219 20.277344 68.285156 20.394531 68.285156 20.628906 L 68.285156 41.578125 C 68.332031 42.011719 68.453125 42.324219 68.652344 42.507812 C 68.847656 42.695312 69.164062 42.789062 69.605469 42.789062 L 70.457031 42.730469 C 70.515625 42.730469 70.546875 42.789062 70.546875 42.902344 C 70.546875 43.011719 70.472656 43.101562 70.324219 43.171875 L 66.414062 44.789062 C 66.296875 44.847656 66.195312 44.875 66.113281 44.875 C 66.03125 44.875 65.988281 44.753906 65.988281 44.507812 L 65.988281 43.171875 C 65.988281 43.070312 65.964844 43.023438 65.914062 43.023438 C 65.84375 43.023438 65.4375 43.242188 64.691406 43.683594 C 62.40625 45.039062 60.476562 45.242188 58.910156 44.289062 C 57.652344 43.523438 56.804688 42.3125 56.363281 40.65625 C 56.15625 39.878906 56.054688 39.058594 56.054688 38.191406 C 56.054688 37.324219 56.234375 36.460938 56.59375 35.601562 C 56.949219 34.742188 57.441406 33.992188 58.070312 33.34375 C 59.453125 31.929688 61.121094 31.222656 63.074219 31.222656 C 63.871094 31.222656 64.480469 31.296875 64.914062 31.449219 Z M 58.277344 37.761719 C 58.277344 39.25 58.6875 40.550781 59.511719 41.664062 C 60.339844 42.777344 61.484375 43.335938 62.953125 43.335938 C 63.601562 43.335938 64.269531 43.175781 64.953125 42.855469 C 65.644531 42.535156 65.988281 42.292969 65.988281 42.125 L 65.988281 34.535156 C 65.988281 34.347656 65.859375 34.128906 65.605469 33.871094 C 64.816406 32.792969 63.777344 32.253906 62.476562 32.253906 C 61.175781 32.253906 60.152344 32.804688 59.402344 33.898438 C 58.652344 34.988281 58.277344 36.277344 58.277344 37.761719 Z M 58.277344 37.761719 "/>
<path style=" stroke:none;fill-rule:nonzero;fill:rgb(0%,0%,0%);fill-opacity:1;" d="M 74.242188 36.726562 C 74.074219 36.726562 73.992188 37.085938 73.992188 37.800781 C 73.992188 39.320312 74.441406 40.59375 75.339844 41.625 C 76.242188 42.65625 77.363281 43.171875 78.703125 43.171875 C 80.042969 43.171875 81.328125 42.59375 82.566406 41.433594 C 82.585938 41.414062 82.609375 41.40625 82.640625 41.40625 L 82.714844 41.40625 C 82.773438 41.40625 82.828125 41.453125 82.882812 41.546875 C 82.9375 41.636719 82.988281 41.699219 83.039062 41.730469 C 81.902344 43.113281 80.5625 44.070312 79.019531 44.597656 C 78.492188 44.78125 77.894531 44.875 77.226562 44.875 C 76.558594 44.875 75.882812 44.691406 75.195312 44.324219 C 74.507812 43.957031 73.921875 43.472656 73.433594 42.875 C 72.390625 41.632812 71.871094 40.078125 71.871094 38.222656 C 71.871094 36.359375 72.4375 34.667969 73.570312 33.136719 C 74.703125 31.609375 76.261719 30.84375 78.242188 30.84375 C 79.664062 30.84375 80.824219 31.476562 81.730469 32.746094 C 82.632812 34.015625 83.082031 35.132812 83.082031 36.09375 C 83.082031 36.515625 82.980469 36.726562 82.773438 36.726562 Z M 74.402344 35.3125 C 74.402344 35.5 74.492188 35.59375 74.667969 35.59375 L 80.210938 35.59375 C 80.46875 35.59375 80.59375 35.441406 80.59375 35.136719 C 80.59375 34.429688 80.277344 33.707031 79.644531 32.96875 C 79.015625 32.226562 78.320312 31.855469 77.566406 31.855469 C 76.828125 31.855469 76.160156 32.1875 75.558594 32.855469 C 74.953125 33.523438 74.570312 34.28125 74.402344 35.136719 Z M 74.402344 35.3125 "/>
<path style=" stroke:none;fill-rule:nonzero;fill:rgb(0%,0%,0%);fill-opacity:1;" d="M 35.863281 64.34375 L 41.378906 64.34375 L 41.378906 58.617188 L 43.246094 58.617188 L 43.246094 64.34375 L 48.691406 64.34375 L 48.691406 66.210938 L 43.246094 66.210938 L 43.246094 71.875 L 41.378906 71.875 L 41.378906 66.210938 L 35.863281 66.210938 Z M 35.863281 64.34375 "/>
<path style=" stroke:none;fill-rule:nonzero;fill:rgb(0%,0%,0%);fill-opacity:1;" d="M 51.292969 64.34375 L 56.8125 64.34375 L 56.8125 58.617188 L 58.679688 58.617188 L 58.679688 64.34375 L 64.125 64.34375 L 64.125 66.210938 L 58.679688 66.210938 L 58.679688 71.875 L 56.8125 71.875 L 56.8125 66.210938 L 51.292969 66.210938 Z M 51.292969 64.34375 "/>
</g>
</svg>
